# xmcd CD database file
#
# Track frame offsets:
#	150
#	22882
#	45187
#	64470
#
# Disc length: 1059 seconds
#
# Revision: 0
# Processed by: cddbd v1.5PL3 Copyright (c) Steve Scherf et al.
# Submitted via: CDex 1.50Beta7
#
DISCID=28042104
DTITLE=SING LIKE TALKING - Borderland
DYEAR=1900
DGENRE=Pop
TTITLE0=Borderland
TTITLE1=The Love We Make
TTITLE2=In The Rhythm
TTITLE3=?
EXTD=
EXTT0=
EXTT1=
EXTT2=
EXTT3=
PLAYORDER=
